<svg width="173" height="162" viewBox="0 0 173 162" version="1.1" xmlns="http://www.w3.org/2000/svg" xmlns:xlink="http://www.w3.org/1999/xlink">
<title>Group 3.1</title>
<desc>Created using Figma</desc>
<g id="Canvas" transform="translate(988 69)">
<g id="Group 3.1" filter="url(#filter0_d)">
<g id="g">
<use xlink:href="#path0_fill" transform="translate(-988 -79)" fill="#1A8CEF"/>
</g>
<g id="b">
<use xlink:href="#path1_fill" transform="translate(-917 -79)" fill="#1A8CEF"/>
</g>
</g>
</g>
<defs>
<filter id="filter0_d" filterUnits="userSpaceOnUse" x="-988" y="-69" width="173" height="162" color-interpolation-filters="sRGB">
<feFlood flood-opacity="0" result="BackgroundImageFix"/>
<feColorMatrix in="SourceAlpha" type="matrix" values="0 0 0 0 0 0 0 0 0 0 0 0 0 0 0 0 0 0 255 0"/>
<feOffset dx="0" dy="4"/>
<feGaussianBlur stdDeviation="4"/>
<feColorMatrix type="matrix" values="0 0 0 0 0 0 0 0 0 0 0 0 0 0 0 0 0 0 0.3 0"/>
<feBlend mode="normal" in2="BackgroundImageFix" result="effect1_dropShadow"/>
<feBlend mode="normal" in="SourceGraphic" in2="effect1_dropShadow" result="shape"/>
</filter>
<path id="path0_fill" d="M 48.672 47.656C 56.256 47.656 63.024 49.384 68.976 52.84C 75.024 56.2 79.728 60.904 83.088 66.952C 86.544 73 88.272 79.912 88.272 87.688L 88.272 118.792C 88.272 126.376 86.592 133.288 83.232 139.528C 79.872 145.768 75.12 150.664 68.976 154.216C 62.928 157.864 56.064 159.688 48.384 159.688C 41.472 159.688 35.04 158.296 29.088 155.512C 23.136 152.824 18.144 148.936 14.112 143.848C 13.056 142.504 12.528 141.16 12.528 139.816C 12.528 137.8 13.536 136.072 15.552 134.632C 16.896 133.768 18.24 133.336 19.584 133.336C 21.984 133.336 23.952 134.344 25.488 136.36C 28.08 139.72 31.344 142.264 35.28 143.992C 39.216 145.816 43.68 146.728 48.672 146.728C 53.376 146.728 57.648 145.576 61.488 143.272C 65.328 141.064 68.4 137.752 70.704 133.336C 73.008 129.016 74.16 123.832 74.16 117.784L 74.16 110.728C 71.184 116.008 67.248 120.136 62.352 123.112C 57.456 126.088 51.936 127.576 45.792 127.576C 38.688 127.576 32.304 125.896 26.64 122.536C 21.072 119.08 16.704 114.328 13.536 108.28C 10.464 102.232 8.928 95.368 8.928 87.688C 8.928 79.912 10.608 73 13.968 66.952C 17.328 60.904 22.032 56.2 28.08 52.84C 34.128 49.384 40.992 47.656 48.672 47.656ZM 48.672 114.616C 53.568 114.616 57.936 113.464 61.776 111.16C 65.712 108.856 68.736 105.688 70.848 101.656C 73.056 97.528 74.16 92.872 74.16 87.688C 74.16 82.504 73.056 77.848 70.848 73.72C 68.736 69.592 65.712 66.376 61.776 64.072C 57.936 61.768 53.568 60.616 48.672 60.616C 43.776 60.616 39.36 61.768 35.424 64.072C 31.584 66.376 28.56 69.592 26.352 73.72C 24.144 77.848 23.04 82.504 23.04 87.688C 23.04 92.872 24.144 97.528 26.352 101.656C 28.56 105.688 31.584 108.856 35.424 111.16C 39.36 113.464 43.776 114.616 48.672 114.616Z"/>
<path id="path1_fill" d="M 17.28 14.536C 15.936 14.536 14.88 14.92 14.112 15.688C 13.344 16.456 12.96 17.512 12.96 18.856L 12.96 88.12L 12.96 88.408C 13.056 95.8 14.88 102.52 18.432 108.568C 21.984 114.616 26.784 119.368 32.832 122.824C 38.976 126.184 45.744 127.864 53.136 127.864C 60.72 127.864 67.584 126.136 73.728 122.68C 79.872 119.128 84.672 114.28 88.128 108.136C 91.68 101.992 93.456 95.128 93.456 87.544C 93.456 80.056 91.68 73.24 88.128 67.096C 84.672 60.952 79.872 56.152 73.728 52.696C 67.584 49.144 60.72 47.368 53.136 47.368C 46.32 47.368 40.128 48.856 34.56 51.832C 29.088 54.712 24.768 58.696 21.6 63.784L 21.6 18.856C 21.6 17.512 21.168 16.456 20.304 15.688C 19.536 14.92 18.528 14.536 17.28 14.536ZM 53.136 119.8C 47.184 119.8 41.808 118.408 37.008 115.624C 32.208 112.744 28.416 108.856 25.632 103.96C 22.944 99.064 21.6 93.592 21.6 87.544C 21.6 81.496 22.944 76.024 25.632 71.128C 28.416 66.232 32.208 62.392 37.008 59.608C 41.808 56.824 47.184 55.432 53.136 55.432C 59.088 55.432 64.464 56.824 69.264 59.608C 74.064 62.392 77.856 66.232 80.64 71.128C 83.424 76.024 84.816 81.496 84.816 87.544C 84.816 93.592 83.424 99.064 80.64 103.96C 77.856 108.856 74.064 112.744 69.264 115.624C 64.464 118.408 59.088 119.8 53.136 119.8Z"/>
</defs>
</svg>
