<svg width="380" height="162" viewBox="0 0 380 162" version="1.1" xmlns="http://www.w3.org/2000/svg" xmlns:xlink="http://www.w3.org/1999/xlink">
<title>Group 5.1</title>
<desc>Created using Figma</desc>
<g id="Canvas" transform="translate(-1652 -461)">
<g id="Group 5.1">
<g id="gabriel barreto" filter="url(#filter0_d)">
<use xlink:href="#path0_fill" transform="matrix(1 2.28848e-17 -2.28848e-17 1 1838 478)" fill="#1A8CEF"/>
</g>
<g id="Group 3.2" filter="url(#filter1_d)">
<g id="g">
<use xlink:href="#path1_fill" transform="translate(1652 451)" fill="#1A8CEF"/>
</g>
<g id="b">
<use xlink:href="#path2_fill" transform="translate(1723 451)" fill="#1A8CEF"/>
</g>
</g>
</g>
</g>
<defs>
<filter id="filter0_d" filterUnits="userSpaceOnUse" x="1834" y="478" width="198" height="109" color-interpolation-filters="sRGB">
<feFlood flood-opacity="0" result="BackgroundImageFix"/>
<feColorMatrix in="SourceAlpha" type="matrix" values="0 0 0 0 0 0 0 0 0 0 0 0 0 0 0 0 0 0 255 0"/>
<feOffset dx="0" dy="4"/>
<feGaussianBlur stdDeviation="4"/>
<feColorMatrix type="matrix" values="0 0 0 0 0 0 0 0 0 0 0 0 0 0 0 0 0 0 0.2 0"/>
<feBlend mode="normal" in2="BackgroundImageFix" result="effect1_dropShadow"/>
<feBlend mode="normal" in="SourceGraphic" in2="effect1_dropShadow" result="shape"/>
</filter>
<filter id="filter1_d" filterUnits="userSpaceOnUse" x="1652" y="461" width="173" height="162" color-interpolation-filters="sRGB">
<feFlood flood-opacity="0" result="BackgroundImageFix"/>
<feColorMatrix in="SourceAlpha" type="matrix" values="0 0 0 0 0 0 0 0 0 0 0 0 0 0 0 0 0 0 255 0"/>
<feOffset dx="0" dy="4"/>
<feGaussianBlur stdDeviation="4"/>
<feColorMatrix type="matrix" values="0 0 0 0 0 0 0 0 0 0 0 0 0 0 0 0 0 0 0.3 0"/>
<feBlend mode="normal" in2="BackgroundImageFix" result="effect1_dropShadow"/>
<feBlend mode="normal" in="SourceGraphic" in2="effect1_dropShadow" result="shape"/>
</filter>
<path id="path0_fill" d="M 22.3825 15.456C 24.9745 15.456 27.2785 16.032 29.2945 17.184C 31.3425 18.336 32.9265 19.936 34.0465 21.984C 35.1985 24 35.7745 26.304 35.7745 28.896L 35.7745 38.304C 35.7745 40.864 35.1985 43.184 34.0465 45.264C 32.8945 47.376 31.3105 49.024 29.2945 50.208C 27.2785 51.424 25.0385 52.032 22.5745 52.032C 20.0465 52.032 17.8225 51.552 15.9025 50.592C 14.0145 49.664 12.4305 48.384 11.1505 46.752C 10.8945 46.432 10.7665 46.112 10.7665 45.792C 10.7665 45.408 10.9265 45.104 11.2465 44.88C 11.5025 44.688 11.7905 44.592 12.1105 44.592C 12.6225 44.592 13.0385 44.8 13.3585 45.216C 14.4145 46.496 15.7105 47.504 17.2465 48.24C 18.8145 48.976 20.5905 49.344 22.5745 49.344C 24.5265 49.344 26.2865 48.864 27.8545 47.904C 29.4225 46.944 30.6545 45.616 31.5505 43.92C 32.4465 42.256 32.8945 40.384 32.8945 38.304L 32.8945 36.192C 31.9665 38.08 30.5745 39.568 28.7185 40.656C 26.8945 41.744 24.7825 42.288 22.3825 42.288C 19.7905 42.288 17.4705 41.728 15.4225 40.608C 13.4065 39.456 11.8225 37.872 10.6705 35.856C 9.5185 33.808 8.9425 31.488 8.9425 28.896C 8.9425 26.336 9.5345 24.032 10.7185 21.984C 11.9025 19.936 13.5185 18.336 15.5665 17.184C 17.6145 16.032 19.8865 15.456 22.3825 15.456ZM 22.3825 39.6C 24.3985 39.6 26.2065 39.152 27.8065 38.256C 29.4065 37.328 30.6545 36.064 31.5505 34.464C 32.4465 32.832 32.8945 30.976 32.8945 28.896C 32.8945 26.816 32.4465 24.96 31.5505 23.328C 30.6545 21.696 29.4065 20.432 27.8065 19.536C 26.2065 18.608 24.3985 18.144 22.3825 18.144C 20.3345 18.144 18.5105 18.608 16.9105 19.536C 15.3105 20.432 14.0625 21.696 13.1665 23.328C 12.2705 24.96 11.8225 26.816 11.8225 28.896C 11.8225 30.976 12.2705 32.832 13.1665 34.464C 14.0625 36.064 15.3105 37.328 16.9105 38.256C 18.5105 39.152 20.3345 39.6 22.3825 39.6ZM 54.9606 15.456C 57.4566 15.456 59.7286 16.048 61.7766 17.232C 63.8246 18.384 65.4246 19.984 66.5766 22.032C 67.7606 24.08 68.3526 26.368 68.3526 28.896L 68.3526 40.56C 68.3526 40.976 68.2246 41.328 67.9686 41.616C 67.7126 41.872 67.3606 42 66.9126 42C 66.4966 42 66.1446 41.872 65.8566 41.616C 65.6006 41.328 65.4726 40.976 65.4726 40.56L 65.4726 36.816C 64.4166 38.512 62.9606 39.856 61.1046 40.848C 59.2806 41.808 57.2326 42.288 54.9606 42.288C 52.4326 42.288 50.1446 41.712 48.0966 40.56C 46.0486 39.376 44.4326 37.76 43.2486 35.712C 42.0966 33.664 41.5206 31.392 41.5206 28.896C 41.5206 26.368 42.0966 24.08 43.2486 22.032C 44.4326 19.984 46.0486 18.384 48.0966 17.232C 50.1446 16.048 52.4326 15.456 54.9606 15.456ZM 54.9606 39.6C 56.9446 39.6 58.7366 39.136 60.3366 38.208C 61.9366 37.28 63.1846 36 64.0806 34.368C 65.0086 32.736 65.4726 30.912 65.4726 28.896C 65.4726 26.88 65.0086 25.056 64.0806 23.424C 63.1846 21.792 61.9366 20.512 60.3366 19.584C 58.7366 18.624 56.9446 18.144 54.9606 18.144C 52.9766 18.144 51.1846 18.624 49.5846 19.584C 47.9846 20.512 46.7206 21.792 45.7926 23.424C 44.8646 25.056 44.4006 26.88 44.4006 28.896C 44.4006 30.912 44.8646 32.736 45.7926 34.368C 46.7206 36 47.9846 37.28 49.5846 38.208C 51.1846 39.136 52.9766 39.6 54.9606 39.6ZM 76.9788 4.512C 76.5308 4.512 76.1788 4.64 75.9228 4.896C 75.6668 5.152 75.5387 5.504 75.5387 5.952L 75.5387 29.04L 75.5387 29.136C 75.5707 31.6 76.1788 33.84 77.3628 35.856C 78.5468 37.872 80.1467 39.456 82.1628 40.608C 84.2108 41.728 86.4668 42.288 88.9308 42.288C 91.4588 42.288 93.7467 41.712 95.7947 40.56C 97.8427 39.376 99.4428 37.76 100.595 35.712C 101.779 33.664 102.371 31.376 102.371 28.848C 102.371 26.352 101.779 24.08 100.595 22.032C 99.4428 19.984 97.8427 18.384 95.7947 17.232C 93.7467 16.048 91.4588 15.456 88.9308 15.456C 86.6587 15.456 84.5947 15.952 82.7387 16.944C 80.9147 17.904 79.4748 19.232 78.4188 20.928L 78.4188 5.952C 78.4188 5.504 78.2747 5.152 77.9868 4.896C 77.7308 4.64 77.3948 4.512 76.9788 4.512ZM 88.9308 39.6C 86.9468 39.6 85.1547 39.136 83.5547 38.208C 81.9548 37.248 80.6907 35.952 79.7627 34.32C 78.8667 32.688 78.4188 30.864 78.4188 28.848C 78.4188 26.832 78.8667 25.008 79.7627 23.376C 80.6907 21.744 81.9548 20.464 83.5547 19.536C 85.1547 18.608 86.9468 18.144 88.9308 18.144C 90.9147 18.144 92.7067 18.608 94.3067 19.536C 95.9067 20.464 97.1707 21.744 98.0987 23.376C 99.0267 25.008 99.4907 26.832 99.4907 28.848C 99.4907 30.864 99.0267 32.688 98.0987 34.32C 97.1707 35.952 95.9067 37.248 94.3067 38.208C 92.7067 39.136 90.9147 39.6 88.9308 39.6ZM 120.706 15.456C 123.138 15.456 124.354 15.984 124.354 17.04C 124.354 17.2 124.338 17.328 124.306 17.424C 124.21 17.776 124.05 18.032 123.826 18.192C 123.634 18.32 123.362 18.384 123.01 18.384C 122.722 18.384 122.338 18.352 121.858 18.288C 121.41 18.224 121.026 18.192 120.706 18.192C 119.106 18.192 117.682 18.528 116.434 19.2C 115.186 19.872 114.21 20.8 113.506 21.984C 112.802 23.168 112.45 24.496 112.45 25.968L 112.45 40.56C 112.45 40.976 112.322 41.328 112.066 41.616C 111.81 41.872 111.458 42 111.01 42C 110.594 42 110.242 41.872 109.954 41.616C 109.698 41.328 109.57 40.976 109.57 40.56L 109.57 17.184C 109.57 16.736 109.698 16.384 109.954 16.128C 110.242 15.872 110.594 15.744 111.01 15.744C 111.458 15.744 111.81 15.872 112.066 16.128C 112.322 16.384 112.45 16.736 112.45 17.184L 112.45 20.16C 113.378 18.688 114.562 17.536 116.002 16.704C 117.442 15.872 119.01 15.456 120.706 15.456ZM 131.577 17.184C 131.577 16.736 131.705 16.384 131.961 16.128C 132.249 15.872 132.601 15.744 133.017 15.744C 133.465 15.744 133.817 15.872 134.073 16.128C 134.329 16.384 134.457 16.736 134.457 17.184L 134.457 40.56C 134.457 40.976 134.329 41.328 134.073 41.616C 133.817 41.872 133.465 42 133.017 42C 132.601 42 132.249 41.872 131.961 41.616C 131.705 41.328 131.577 40.976 131.577 40.56L 131.577 17.184ZM 133.017 5.76C 133.625 5.76 134.137 5.952 134.553 6.336C 135.001 6.72 135.225 7.264 135.225 7.968C 135.225 8.608 135.001 9.152 134.553 9.6C 134.137 10.016 133.609 10.224 132.969 10.224C 132.329 10.224 131.801 10.016 131.385 9.6C 130.969 9.152 130.761 8.608 130.761 7.968C 130.761 7.264 130.985 6.72 131.433 6.336C 131.881 5.952 132.409 5.76 133.017 5.76ZM 154.966 15.504C 157.302 15.504 159.382 16.064 161.206 17.184C 163.062 18.272 164.502 19.792 165.526 21.744C 166.55 23.696 167.062 25.92 167.062 28.416C 167.062 28.832 166.934 29.168 166.678 29.424C 166.422 29.648 166.086 29.76 165.67 29.76L 145.558 29.76C 145.654 31.648 146.15 33.344 147.046 34.848C 147.942 36.32 149.142 37.472 150.646 38.304C 152.15 39.136 153.83 39.552 155.686 39.552C 156.934 39.552 158.182 39.344 159.43 38.928C 160.71 38.48 161.718 37.904 162.454 37.2C 162.774 36.944 163.11 36.816 163.462 36.816C 163.814 36.816 164.102 36.912 164.326 37.104C 164.678 37.392 164.854 37.728 164.854 38.112C 164.854 38.432 164.71 38.736 164.422 39.024C 163.398 39.952 162.054 40.72 160.39 41.328C 158.758 41.936 157.19 42.24 155.686 42.24C 153.158 42.24 150.902 41.68 148.918 40.56C 146.966 39.408 145.43 37.824 144.31 35.808C 143.19 33.76 142.63 31.456 142.63 28.896C 142.63 26.304 143.142 24 144.166 21.984C 145.222 19.936 146.678 18.352 148.534 17.232C 150.422 16.08 152.566 15.504 154.966 15.504ZM 154.966 18.192C 152.47 18.192 150.358 19.024 148.63 20.688C 146.934 22.352 145.926 24.544 145.606 27.264L 164.278 27.264C 164.054 24.544 163.094 22.352 161.398 20.688C 159.702 19.024 157.558 18.192 154.966 18.192ZM 172.36 5.952C 172.36 5.504 172.488 5.152 172.744 4.896C 173.032 4.64 173.384 4.512 173.8 4.512C 174.248 4.512 174.6 4.64 174.856 4.896C 175.112 5.152 175.24 5.504 175.24 5.952L 175.24 34.08C 175.24 35.552 175.544 36.768 176.152 37.728C 176.792 38.656 177.608 39.12 178.6 39.12L 179.8 39.12C 180.152 39.12 180.44 39.248 180.664 39.504C 180.888 39.76 181 40.112 181 40.56C 181 40.976 180.872 41.328 180.616 41.616C 180.36 41.872 180.008 42 179.56 42L 178.6 42C 176.776 42 175.272 41.264 174.088 39.792C 172.936 38.32 172.36 36.416 172.36 34.08L 172.36 5.952ZM 5.77562 58.512C 5.32762 58.512 4.97563 58.64 4.71963 58.896C 4.46363 59.152 4.33563 59.504 4.33563 59.952L 4.33563 83.04L 4.33563 83.136C 4.36763 85.6 4.97562 87.84 6.15963 89.856C 7.34363 91.872 8.94363 93.456 10.9596 94.608C 13.0076 95.728 15.2636 96.288 17.7276 96.288C 20.2556 96.288 22.5436 95.712 24.5916 94.56C 26.6396 93.376 28.2396 91.76 29.3916 89.712C 30.5756 87.664 31.1676 85.376 31.1676 82.848C 31.1676 80.352 30.5756 78.08 29.3916 76.032C 28.2396 73.984 26.6396 72.384 24.5916 71.232C 22.5436 70.048 20.2556 69.456 17.7276 69.456C 15.4556 69.456 13.3916 69.952 11.5356 70.944C 9.71162 71.904 8.27162 73.232 7.21562 74.928L 7.21562 59.952C 7.21562 59.504 7.07162 59.152 6.78363 58.896C 6.52763 58.64 6.19163 58.512 5.77562 58.512ZM 17.7276 93.6C 15.7436 93.6 13.9516 93.136 12.3516 92.208C 10.7516 91.248 9.48763 89.952 8.55963 88.32C 7.66363 86.688 7.21562 84.864 7.21562 82.848C 7.21562 80.832 7.66363 79.008 8.55963 77.376C 9.48763 75.744 10.7516 74.464 12.3516 73.536C 13.9516 72.608 15.7436 72.144 17.7276 72.144C 19.7116 72.144 21.5036 72.608 23.1036 73.536C 24.7036 74.464 25.9676 75.744 26.8956 77.376C 27.8236 79.008 28.2876 80.832 28.2876 82.848C 28.2876 84.864 27.8236 86.688 26.8956 88.32C 25.9676 89.952 24.7036 91.248 23.1036 92.208C 21.5036 93.136 19.7116 93.6 17.7276 93.6ZM 50.3669 69.456C 52.8629 69.456 55.1349 70.048 57.1829 71.232C 59.2309 72.384 60.8309 73.984 61.9829 76.032C 63.1669 78.08 63.7589 80.368 63.7589 82.896L 63.7589 94.56C 63.7589 94.976 63.6309 95.328 63.3749 95.616C 63.1189 95.872 62.7669 96 62.3189 96C 61.9029 96 61.5509 95.872 61.2629 95.616C 61.0069 95.328 60.8789 94.976 60.8789 94.56L 60.8789 90.816C 59.8229 92.512 58.3669 93.856 56.5109 94.848C 54.6869 95.808 52.6389 96.288 50.3669 96.288C 47.8389 96.288 45.5509 95.712 43.5029 94.56C 41.4549 93.376 39.8389 91.76 38.6549 89.712C 37.5029 87.664 36.9269 85.392 36.9269 82.896C 36.9269 80.368 37.5029 78.08 38.6549 76.032C 39.8389 73.984 41.4549 72.384 43.5029 71.232C 45.5509 70.048 47.8389 69.456 50.3669 69.456ZM 50.3669 93.6C 52.3509 93.6 54.1429 93.136 55.7429 92.208C 57.3429 91.28 58.5909 90 59.4869 88.368C 60.4149 86.736 60.8789 84.912 60.8789 82.896C 60.8789 80.88 60.4149 79.056 59.4869 77.424C 58.5909 75.792 57.3429 74.512 55.7429 73.584C 54.1429 72.624 52.3509 72.144 50.3669 72.144C 48.3829 72.144 46.5909 72.624 44.9909 73.584C 43.3909 74.512 42.1269 75.792 41.1989 77.424C 40.2709 79.056 39.8069 80.88 39.8069 82.896C 39.8069 84.912 40.2709 86.736 41.1989 88.368C 42.1269 90 43.3909 91.28 44.9909 92.208C 46.5909 93.136 48.3829 93.6 50.3669 93.6ZM 82.081 69.456C 84.513 69.456 85.729 69.984 85.729 71.04C 85.729 71.2 85.713 71.328 85.681 71.424C 85.585 71.776 85.425 72.032 85.201 72.192C 85.009 72.32 84.737 72.384 84.385 72.384C 84.097 72.384 83.713 72.352 83.233 72.288C 82.785 72.224 82.401 72.192 82.081 72.192C 80.481 72.192 79.057 72.528 77.809 73.2C 76.561 73.872 75.585 74.8 74.881 75.984C 74.177 77.168 73.825 78.496 73.825 79.968L 73.825 94.56C 73.825 94.976 73.697 95.328 73.441 95.616C 73.185 95.872 72.833 96 72.385 96C 71.969 96 71.617 95.872 71.329 95.616C 71.073 95.328 70.945 94.976 70.945 94.56L 70.945 71.184C 70.945 70.736 71.073 70.384 71.329 70.128C 71.617 69.872 71.969 69.744 72.385 69.744C 72.833 69.744 73.185 69.872 73.441 70.128C 73.697 70.384 73.825 70.736 73.825 71.184L 73.825 74.16C 74.753 72.688 75.937 71.536 77.377 70.704C 78.817 69.872 80.385 69.456 82.081 69.456ZM 103.128 69.456C 105.56 69.456 106.776 69.984 106.776 71.04C 106.776 71.2 106.76 71.328 106.728 71.424C 106.632 71.776 106.472 72.032 106.248 72.192C 106.056 72.32 105.784 72.384 105.432 72.384C 105.144 72.384 104.76 72.352 104.28 72.288C 103.832 72.224 103.448 72.192 103.128 72.192C 101.528 72.192 100.104 72.528 98.8559 73.2C 97.6079 73.872 96.6319 74.8 95.9279 75.984C 95.2239 77.168 94.8719 78.496 94.8719 79.968L 94.8719 94.56C 94.8719 94.976 94.7439 95.328 94.4879 95.616C 94.2319 95.872 93.8799 96 93.4319 96C 93.0159 96 92.6639 95.872 92.3759 95.616C 92.1199 95.328 91.9919 94.976 91.9919 94.56L 91.9919 71.184C 91.9919 70.736 92.1199 70.384 92.3759 70.128C 92.6639 69.872 93.0159 69.744 93.4319 69.744C 93.8799 69.744 94.2319 69.872 94.4879 70.128C 94.7439 70.384 94.8719 70.736 94.8719 71.184L 94.8719 74.16C 95.7999 72.688 96.9839 71.536 98.4239 70.704C 99.8639 69.872 101.432 69.456 103.128 69.456ZM 122.013 69.504C 124.349 69.504 126.429 70.064 128.253 71.184C 130.109 72.272 131.549 73.792 132.573 75.744C 133.597 77.696 134.109 79.92 134.109 82.416C 134.109 82.832 133.981 83.168 133.725 83.424C 133.469 83.648 133.133 83.76 132.717 83.76L 112.605 83.76C 112.701 85.648 113.197 87.344 114.093 88.848C 114.989 90.32 116.189 91.472 117.693 92.304C 119.197 93.136 120.877 93.552 122.733 93.552C 123.981 93.552 125.229 93.344 126.477 92.928C 127.757 92.48 128.765 91.904 129.501 91.2C 129.821 90.944 130.157 90.816 130.509 90.816C 130.861 90.816 131.149 90.912 131.373 91.104C 131.725 91.392 131.901 91.728 131.901 92.112C 131.901 92.432 131.757 92.736 131.469 93.024C 130.445 93.952 129.101 94.72 127.437 95.328C 125.805 95.936 124.237 96.24 122.733 96.24C 120.205 96.24 117.949 95.68 115.965 94.56C 114.013 93.408 112.477 91.824 111.357 89.808C 110.237 87.76 109.677 85.456 109.677 82.896C 109.677 80.304 110.189 78 111.213 75.984C 112.269 73.936 113.725 72.352 115.581 71.232C 117.469 70.08 119.613 69.504 122.013 69.504ZM 122.013 72.192C 119.517 72.192 117.405 73.024 115.677 74.688C 113.981 76.352 112.973 78.544 112.653 81.264L 131.325 81.264C 131.101 78.544 130.141 76.352 128.445 74.688C 126.749 73.024 124.605 72.192 122.013 72.192ZM 152.223 93.072C 152.671 93.072 153.023 93.216 153.279 93.504C 153.567 93.76 153.711 94.112 153.711 94.56C 153.711 94.976 153.567 95.328 153.279 95.616C 153.023 95.872 152.671 96 152.223 96L 151.119 96C 149.359 96 147.791 95.6 146.415 94.8C 145.039 94 143.967 92.912 143.199 91.536C 142.431 90.128 142.047 88.544 142.047 86.784L 142.047 73.296L 138.303 73.296C 137.919 73.296 137.599 73.184 137.343 72.96C 137.119 72.704 137.007 72.384 137.007 72C 137.007 71.616 137.119 71.312 137.343 71.088C 137.599 70.832 137.919 70.704 138.303 70.704L 142.047 70.704L 142.047 62.88C 142.047 62.432 142.175 62.08 142.431 61.824C 142.719 61.536 143.071 61.392 143.487 61.392C 143.935 61.392 144.287 61.536 144.543 61.824C 144.831 62.08 144.975 62.432 144.975 62.88L 144.975 70.704L 151.311 70.704C 151.695 70.704 151.999 70.832 152.223 71.088C 152.479 71.312 152.607 71.616 152.607 72C 152.607 72.384 152.479 72.704 152.223 72.96C 151.999 73.184 151.695 73.296 151.311 73.296L 144.975 73.296L 144.975 86.784C 144.975 88.64 145.551 90.16 146.703 91.344C 147.855 92.496 149.343 93.072 151.167 93.072L 152.223 93.072ZM 171.726 69.456C 174.222 69.456 176.494 70.048 178.542 71.232C 180.59 72.384 182.19 73.984 183.342 76.032C 184.526 78.08 185.118 80.368 185.118 82.896C 185.118 85.392 184.526 87.664 183.342 89.712C 182.19 91.76 180.59 93.376 178.542 94.56C 176.494 95.712 174.222 96.288 171.726 96.288C 169.198 96.288 166.91 95.712 164.862 94.56C 162.814 93.376 161.198 91.76 160.014 89.712C 158.862 87.664 158.286 85.392 158.286 82.896C 158.286 80.368 158.862 78.08 160.014 76.032C 161.198 73.984 162.814 72.384 164.862 71.232C 166.91 70.048 169.198 69.456 171.726 69.456ZM 171.726 72.144C 169.742 72.144 167.95 72.624 166.35 73.584C 164.75 74.512 163.486 75.792 162.558 77.424C 161.63 79.056 161.166 80.88 161.166 82.896C 161.166 84.912 161.63 86.736 162.558 88.368C 163.486 90 164.75 91.28 166.35 92.208C 167.95 93.136 169.742 93.6 171.726 93.6C 173.71 93.6 175.502 93.136 177.102 92.208C 178.702 91.28 179.95 90 180.846 88.368C 181.774 86.736 182.238 84.912 182.238 82.896C 182.238 80.88 181.774 79.056 180.846 77.424C 179.95 75.792 178.702 74.512 177.102 73.584C 175.502 72.624 173.71 72.144 171.726 72.144Z"/>
<path id="path1_fill" d="M 48.672 47.656C 56.256 47.656 63.024 49.384 68.976 52.84C 75.024 56.2 79.728 60.904 83.088 66.952C 86.544 73 88.272 79.912 88.272 87.688L 88.272 118.792C 88.272 126.376 86.592 133.288 83.232 139.528C 79.872 145.768 75.12 150.664 68.976 154.216C 62.928 157.864 56.064 159.688 48.384 159.688C 41.472 159.688 35.04 158.296 29.088 155.512C 23.136 152.824 18.144 148.936 14.112 143.848C 13.056 142.504 12.528 141.16 12.528 139.816C 12.528 137.8 13.536 136.072 15.552 134.632C 16.896 133.768 18.24 133.336 19.584 133.336C 21.984 133.336 23.952 134.344 25.488 136.36C 28.08 139.72 31.344 142.264 35.28 143.992C 39.216 145.816 43.68 146.728 48.672 146.728C 53.376 146.728 57.648 145.576 61.488 143.272C 65.328 141.064 68.4 137.752 70.704 133.336C 73.008 129.016 74.16 123.832 74.16 117.784L 74.16 110.728C 71.184 116.008 67.248 120.136 62.352 123.112C 57.456 126.088 51.936 127.576 45.792 127.576C 38.688 127.576 32.304 125.896 26.64 122.536C 21.072 119.08 16.704 114.328 13.536 108.28C 10.464 102.232 8.928 95.368 8.928 87.688C 8.928 79.912 10.608 73 13.968 66.952C 17.328 60.904 22.032 56.2 28.08 52.84C 34.128 49.384 40.992 47.656 48.672 47.656ZM 48.672 114.616C 53.568 114.616 57.936 113.464 61.776 111.16C 65.712 108.856 68.736 105.688 70.848 101.656C 73.056 97.528 74.16 92.872 74.16 87.688C 74.16 82.504 73.056 77.848 70.848 73.72C 68.736 69.592 65.712 66.376 61.776 64.072C 57.936 61.768 53.568 60.616 48.672 60.616C 43.776 60.616 39.36 61.768 35.424 64.072C 31.584 66.376 28.56 69.592 26.352 73.72C 24.144 77.848 23.04 82.504 23.04 87.688C 23.04 92.872 24.144 97.528 26.352 101.656C 28.56 105.688 31.584 108.856 35.424 111.16C 39.36 113.464 43.776 114.616 48.672 114.616Z"/>
<path id="path2_fill" d="M 17.28 14.536C 15.936 14.536 14.88 14.92 14.112 15.688C 13.344 16.456 12.96 17.512 12.96 18.856L 12.96 88.12L 12.96 88.408C 13.056 95.8 14.88 102.52 18.432 108.568C 21.984 114.616 26.784 119.368 32.832 122.824C 38.976 126.184 45.744 127.864 53.136 127.864C 60.72 127.864 67.584 126.136 73.728 122.68C 79.872 119.128 84.672 114.28 88.128 108.136C 91.68 101.992 93.456 95.128 93.456 87.544C 93.456 80.056 91.68 73.24 88.128 67.096C 84.672 60.952 79.872 56.152 73.728 52.696C 67.584 49.144 60.72 47.368 53.136 47.368C 46.32 47.368 40.128 48.856 34.56 51.832C 29.088 54.712 24.768 58.696 21.6 63.784L 21.6 18.856C 21.6 17.512 21.168 16.456 20.304 15.688C 19.536 14.92 18.528 14.536 17.28 14.536ZM 53.136 119.8C 47.184 119.8 41.808 118.408 37.008 115.624C 32.208 112.744 28.416 108.856 25.632 103.96C 22.944 99.064 21.6 93.592 21.6 87.544C 21.6 81.496 22.944 76.024 25.632 71.128C 28.416 66.232 32.208 62.392 37.008 59.608C 41.808 56.824 47.184 55.432 53.136 55.432C 59.088 55.432 64.464 56.824 69.264 59.608C 74.064 62.392 77.856 66.232 80.64 71.128C 83.424 76.024 84.816 81.496 84.816 87.544C 84.816 93.592 83.424 99.064 80.64 103.96C 77.856 108.856 74.064 112.744 69.264 115.624C 64.464 118.408 59.088 119.8 53.136 119.8Z"/>
</defs>
</svg>
